<svg width="64" height="66" viewBox="0 0 64 66" fill="none" xmlns="http://www.w3.org/2000/svg">
<g clip-path="url(#clip0_370726_458)">
<path d="M37.95 58.4074H20.2875C11.375 58.4074 4.125 50.9309 4.125 41.7399V25.936C4.125 24.9047 4.9375 24.0797 5.925 24.0797C6.9125 24.0797 7.725 24.9176 7.725 25.936V41.7528C7.725 48.8942 13.35 54.6949 20.275 54.6949H37.9375C38.9375 54.6949 39.7375 55.5328 39.7375 56.5512C39.75 57.5824 38.95 58.4074 37.95 58.4074Z" fill="#2D527C"/>
<path d="M48.4625 57.5825C47.7125 57.5825 47.025 57.1055 46.7625 56.3321C46.4375 55.3653 46.925 54.3083 47.8625 53.9602C52.8875 52.1427 56.2625 47.2313 56.2625 41.7399V39.8708C56.2625 38.8395 57.075 38.0145 58.0625 38.0145C59.05 38.0145 59.8625 38.8524 59.8625 39.8708V41.7399C59.8625 48.804 55.525 55.1333 49.05 57.4665C48.8625 57.5438 48.6625 57.5825 48.4625 57.5825Z" fill="#2D527C"/>
<path d="M58.5875 32.0718H5.4125C3.425 32.0718 1.8125 30.409 1.8125 28.3594C1.8125 26.3097 3.425 24.6469 5.4125 24.6469H58.6C60.5875 24.6469 62.2 26.3097 62.2 28.3594C62.2 30.409 60.5875 32.0718 58.5875 32.0718Z" fill="#CEE8FA"/>
<path d="M58.5875 33.9282H5.4125C2.425 33.9282 0 31.4274 0 28.3465C0 25.2657 2.425 22.7649 5.4125 22.7649H58.6C61.5875 22.7649 64.0125 25.2657 64.0125 28.3465C64.0125 31.4274 61.575 33.9282 58.5875 33.9282ZM5.4125 26.4903C4.4125 26.4903 3.6125 27.3282 3.6125 28.3465C3.6125 29.3649 4.425 30.2028 5.4125 30.2028H58.6C59.6 30.2028 60.4 29.3649 60.4 28.3465C60.4 27.3282 59.5875 26.4903 58.6 26.4903H5.4125Z" fill="#2D527C"/>
<path d="M14.2375 61.9008C15.9772 61.9008 17.3875 60.4464 17.3875 58.6524C17.3875 56.8583 15.9772 55.4039 14.2375 55.4039C12.4978 55.4039 11.0875 56.8583 11.0875 58.6524C11.0875 60.4464 12.4978 61.9008 14.2375 61.9008Z" fill="#CEE8FA"/>
<path d="M14.2375 63.77C11.5 63.77 9.27502 61.4754 9.27502 58.6524C9.27502 55.8293 11.5 53.5348 14.2375 53.5348C16.975 53.5348 19.2 55.8293 19.2 58.6524C19.2 61.4754 16.975 63.77 14.2375 63.77ZM14.2375 57.2602C13.4875 57.2602 12.8875 57.8918 12.8875 58.6524C12.8875 59.4129 13.5 60.0446 14.2375 60.0446C14.975 60.0446 15.5875 59.4129 15.5875 58.6524C15.5875 57.8918 14.9875 57.2602 14.2375 57.2602Z" fill="#2D527C"/>
<path d="M49.7626 61.9008C51.5023 61.9008 52.9126 60.4464 52.9126 58.6524C52.9126 56.8583 51.5023 55.4039 49.7626 55.4039C48.0229 55.4039 46.6125 56.8583 46.6125 58.6524C46.6125 60.4464 48.0229 61.9008 49.7626 61.9008Z" fill="#CEE8FA"/>
<path d="M49.7626 63.77C47.0251 63.77 44.8 61.4754 44.8 58.6524C44.8 55.8293 47.0251 53.5348 49.7626 53.5348C52.5001 53.5348 54.7251 55.8293 54.7251 58.6524C54.7251 61.4754 52.4876 63.77 49.7626 63.77ZM49.7626 57.2602C49.0126 57.2602 48.4126 57.8918 48.4126 58.6524C48.4126 59.4129 49.0251 60.0446 49.7626 60.0446C50.5001 60.0446 51.1126 59.4129 51.1126 58.6524C51.1126 57.8918 50.5001 57.2602 49.7626 57.2602Z" fill="#2D527C"/>
<path d="M40.425 11.4341H23.575C22.575 11.4341 21.775 10.5962 21.775 9.57781C21.775 8.55945 22.5875 7.72156 23.575 7.72156H40.4375C41.4375 7.72156 42.2375 8.55945 42.2375 9.57781C42.2375 10.5962 41.425 11.4341 40.425 11.4341Z" fill="#F0BF5F"/>
<path d="M41.0125 15.0563C40.0125 15.0563 39.2125 14.2184 39.2125 13.2V4.08635C39.2125 3.0551 40.025 2.2301 41.0125 2.2301C42 2.2301 42.8125 3.06799 42.8125 4.08635V13.2C42.8125 14.2313 42.0125 15.0563 41.0125 15.0563Z" fill="#F0BF5F"/>
<path d="M44.2625 5.95566H37.775C36.775 5.95566 35.975 5.11777 35.975 4.09941C35.975 3.08105 36.7875 2.24316 37.775 2.24316H44.2625C45.2625 2.24316 46.0625 3.08105 46.0625 4.09941C46.0625 5.11777 45.25 5.95566 44.2625 5.95566Z" fill="#F0BF5F"/>
<path d="M22.9875 15.0563C21.9875 15.0563 21.1875 14.2184 21.1875 13.2V4.08635C21.1875 3.0551 22 2.2301 22.9875 2.2301C23.975 2.2301 24.7875 3.06799 24.7875 4.08635V13.2C24.7875 14.2313 23.9875 15.0563 22.9875 15.0563Z" fill="#F0BF5F"/>
<path d="M26.225 5.95749H19.7375C18.7375 5.95749 17.9375 5.1196 17.9375 4.10124C17.9375 3.08289 18.75 2.245 19.7375 2.245H26.225C27.225 2.245 28.025 3.08289 28.025 4.10124C28.025 5.1196 27.225 5.95749 26.225 5.95749Z" fill="#F0BF5F"/>
<path d="M32 19.336C31 19.336 30.2 18.4981 30.2 17.4797V9.75823C30.2 8.72698 31.0125 7.90198 32 7.90198C32.9875 7.90198 33.7999 8.73987 33.7999 9.75823V17.4797C33.7999 18.4981 33 19.336 32 19.336Z" fill="#F0BF5F"/>
<path d="M24.4625 43.1578H14.75C13.525 43.1578 12.525 42.1266 12.525 40.8633V24.6211H26.675V40.8633C26.675 42.1395 25.6875 43.1578 24.4625 43.1578Z" fill="#CEE8FA"/>
<path d="M24.4625 45.0269H14.75C12.5375 45.0269 10.725 43.1707 10.725 40.8762V24.634C10.725 23.6027 11.5375 22.7777 12.525 22.7777H26.675C27.675 22.7777 28.475 23.6156 28.475 24.634V40.8762C28.4875 43.1578 26.675 45.0269 24.4625 45.0269ZM14.3375 26.4902V40.8762C14.3375 41.1082 14.525 41.3015 14.75 41.3015H24.4625C24.6875 41.3015 24.875 41.1082 24.875 40.8762V26.4902H14.3375Z" fill="#2D527C"/>
</g>
<defs>
<clipPath id="clip0_370726_458">
<rect width="64" height="66" fill="white"/>
</clipPath>
</defs>
</svg>
