<svg width="66" height="66" viewBox="0 0 66 66" fill="none" xmlns="http://www.w3.org/2000/svg">
<g clip-path="url(#clip0_370726_405)">
<path d="M38.4527 18.4851H19.207C18.1758 18.4851 17.3379 17.6472 17.3379 16.616C17.3379 15.5847 18.1758 14.7468 19.207 14.7468H38.4527C39.484 14.7468 40.3219 15.5847 40.3219 16.616C40.3219 17.6472 39.484 18.4851 38.4527 18.4851Z" fill="#2D527C"/>
<path d="M23.3191 49.487H17.3766C7.79883 49.487 0 41.6882 0 32.1105C0 25.7683 3.45469 19.9288 9.02344 16.8737C9.92578 16.371 11.073 16.7062 11.5758 17.6214C12.0785 18.5237 11.7434 19.671 10.8281 20.1737C6.4582 22.5714 3.75117 27.1476 3.75117 32.1233C3.75117 39.6386 9.86133 45.7487 17.3766 45.7487H23.3191C24.3504 45.7487 25.1883 46.5866 25.1883 47.6179C25.2012 48.6362 24.3504 49.487 23.3191 49.487Z" fill="#2D527C"/>
<path d="M24.9176 63.2027C16.3711 63.2027 9.41016 56.2417 9.41016 47.6824C9.41016 46.6511 10.248 45.8132 11.2793 45.8132C12.3105 45.8132 13.1484 46.6511 13.1484 47.6824C13.1484 54.1664 18.4207 59.4515 24.9176 59.4515C31.4145 59.4515 36.6867 54.1792 36.6867 47.6824C36.6867 41.1984 31.4145 35.9132 24.9176 35.9132C21.6563 35.9132 18.627 37.2152 16.384 39.5742C15.675 40.3218 14.4891 40.3605 13.7285 39.6386C12.9809 38.9296 12.9422 37.7437 13.6641 36.9832C16.6289 33.8636 20.625 32.1492 24.9176 32.1492C33.477 32.1492 40.4379 39.1101 40.4379 47.6695C40.4379 56.2289 33.477 63.2027 24.9176 63.2027Z" fill="#F0BF5F"/>
<path d="M49.5645 45.7875H38.1176C37.0864 45.7875 36.2485 44.9496 36.2485 43.9183C36.2485 42.8871 37.0864 42.0492 38.1176 42.0492H49.5645C50.5957 42.0492 51.4336 42.8871 51.4336 43.9183C51.4336 44.9496 50.5957 45.7875 49.5645 45.7875Z" fill="#F0BF5F"/>
<path d="M61.8105 53.3284H38.5559C37.5246 53.3284 36.6867 52.4906 36.6867 51.4593C36.6867 50.4281 37.5246 49.5902 38.5559 49.5902H61.8105C62.0555 49.5902 62.2488 49.3968 62.2488 49.1519V38.5042C62.2488 38.1433 61.9523 37.8597 61.6043 37.8597H59.9801C59.6191 37.8597 59.3355 38.1562 59.3355 38.5042V43.5058C59.3355 44.537 58.4977 45.3749 57.4664 45.3749C56.4352 45.3749 55.5973 44.537 55.5973 43.5058V38.5042C55.5973 36.0808 57.5695 34.1085 59.993 34.1085H61.6172C64.0406 34.1085 66.0129 36.0808 66.0129 38.5042V49.1519C66 51.4464 64.118 53.3284 61.8105 53.3284Z" fill="#F0BF5F"/>
<path d="M24.9176 52.9418C27.865 52.9418 30.2543 50.5524 30.2543 47.605C30.2543 44.6576 27.865 42.2683 24.9176 42.2683C21.9702 42.2683 19.5808 44.6576 19.5808 47.605C19.5808 50.5524 21.9702 52.9418 24.9176 52.9418Z" fill="#CEE8FA"/>
<path d="M24.9176 54.8109C20.9472 54.8109 17.7117 51.5753 17.7117 47.605C17.7117 43.6347 20.9472 40.3992 24.9176 40.3992C28.8879 40.3992 32.1234 43.6347 32.1234 47.605C32.1234 51.5753 28.9008 54.8109 24.9176 54.8109ZM24.9176 44.1503C23.0098 44.1503 21.4629 45.6972 21.4629 47.605C21.4629 49.5128 23.0098 51.0597 24.9176 51.0597C26.8254 51.0597 28.3723 49.5128 28.3723 47.605C28.3723 45.6972 26.8254 44.1503 24.9176 44.1503Z" fill="#F0BF5F"/>
<path d="M27.8953 24.5696V8.64963C27.8953 6.45823 29.6742 4.67932 31.8656 4.67932H60.1476C62.3391 4.67932 64.118 6.45823 64.118 8.64963V24.5696C64.118 26.761 62.3391 28.5399 60.1476 28.5399H31.8785C29.6742 28.5399 27.8953 26.761 27.8953 24.5696Z" fill="#CEE8FA"/>
<path d="M60.1476 30.4219H31.8785C28.6558 30.4219 26.0262 27.7922 26.0262 24.5695V8.64958C26.0262 5.42693 28.6558 2.79724 31.8785 2.79724H60.1605C63.3832 2.79724 66.0129 5.42693 66.0129 8.64958V24.5695C66 27.7922 63.3703 30.4219 60.1476 30.4219ZM31.8785 6.54841C30.7183 6.54841 29.7773 7.48943 29.7773 8.64958V24.5695C29.7773 25.7297 30.7183 26.6707 31.8785 26.6707H60.1605C61.3207 26.6707 62.2617 25.7297 62.2617 24.5695V8.64958C62.2617 7.48943 61.3207 6.54841 60.1605 6.54841H31.8785Z" fill="#2D527C"/>
<path d="M44.4468 17.7117H43.8152V16.5644C43.8152 15.907 43.1578 15.4816 42.1394 15.4816C41.1211 15.4816 40.4636 15.907 40.4636 16.5644V17.7117H39.3164L42.5519 11.2148C42.6035 11.0859 42.6679 10.9312 42.6679 10.7765C42.6679 9.9644 41.5851 9.46167 40.9922 9.46167C40.3734 9.46167 39.8707 9.77104 39.5871 10.3253L35.2043 18.9492C35.0496 19.2328 35.0238 19.4777 35.0238 19.6066C35.0238 20.3285 35.5008 20.8183 36.1968 20.8183H40.4636V22.6488C40.4636 23.4093 41.3273 23.7445 42.1394 23.7445C42.9386 23.7445 43.8152 23.3964 43.8152 22.6488V20.8183H44.4468C45.014 20.8183 45.5425 20.0578 45.5425 19.2585C45.5425 18.5109 45.1945 17.7117 44.4468 17.7117Z" fill="#2D527C"/>
<path d="M55.8937 17.7117H55.2621V16.5644C55.2621 15.907 54.6046 15.4816 53.5863 15.4816C52.5679 15.4816 51.9105 15.907 51.9105 16.5644V17.7117H50.7632L54.0117 11.2148C54.0632 11.0859 54.1277 10.9312 54.1277 10.7765C54.1277 9.9644 53.0449 9.46167 52.4519 9.46167C51.8332 9.46167 51.3304 9.77104 51.0468 10.3253L46.664 18.9492C46.5093 19.2328 46.4835 19.4777 46.4835 19.6066C46.4835 20.3285 46.9605 20.8183 47.6566 20.8183H51.9234V22.6488C51.9234 23.4093 52.7871 23.7445 53.5992 23.7445C54.4113 23.7445 55.2749 23.3964 55.2749 22.6488V20.8183H55.9066C56.4738 20.8183 57.0023 20.0578 57.0023 19.2585C57.0023 18.5109 56.6542 17.7117 55.8937 17.7117Z" fill="#2D527C"/>
</g>
<defs>
<clipPath id="clip0_370726_405">
<rect width="66" height="66" fill="white"/>
</clipPath>
</defs>
</svg>
